<?xml version="1.0" standalone="no"?><!DOCTYPE svg PUBLIC "-//W3C//DTD SVG 1.1//EN" "http://www.w3.org/Graphics/SVG/1.1/DTD/svg11.dtd"><svg t="1543828918201" class="icon" style="" viewBox="0 0 1024 1024" version="1.1" xmlns="http://www.w3.org/2000/svg" p-id="1782" xmlns:xlink="http://www.w3.org/1999/xlink" width="32" height="32"><defs><style type="text/css"></style></defs><path d="M700.70820286 40.02378075c184.42033314 74.65191667 314.51367143 255.45534259 314.51367143 466.64288592 0 277.92210252-225.29977177 503.22187429-503.22187429 503.22187429-277.92210252 0-503.22187429-225.29977177-503.22187429-503.22187429 0-211.18859172 130.09333829-391.99096924 314.51367143-466.64288592v139.71745664c-112.80976367 65.25634492-188.70820286 187.22684347-188.70820285 326.92542928 0 208.4407906 168.97561511 377.41640571 377.41640571 377.41640571 208.4407906 0 377.41640571-168.97561511 377.41640571-377.41640571 0-139.69753744-75.89843919-261.66803597-188.70820285-326.92542928v-139.71745664zM449.09726572 3.44479238v503.22187429h125.80546856v-503.22187429h-125.80546856z" p-id="1783"></path></svg>