<?xml version="1.0" standalone="no"?><!DOCTYPE svg PUBLIC "-//W3C//DTD SVG 1.1//EN" "http://www.w3.org/Graphics/SVG/1.1/DTD/svg11.dtd"><svg t="1539223595986" class="icon" style="" viewBox="0 0 2581 1024" version="1.1" xmlns="http://www.w3.org/2000/svg" p-id="12637" xmlns:xlink="http://www.w3.org/1999/xlink" width="504.1015625" height="200"><defs><style type="text/css"></style></defs><path d="M670.964756 722.042427c-4.247816 25.676841-12.501703 44.084044-24.813463 55.256146-12.31176 11.172102-30.062797 16.766787-53.287646 16.766787-23.224849 0-38.972851-5.594685-47.192203-16.766787s-10.222387-29.579306-5.974571-55.256146l69.225591-419.722235c4.230549-25.642305 12.346295-44.273987 24.312705-55.877779 11.983677-11.586523 29.579306-17.388419 52.821422-17.388418 20.133958 0 35.502074 5.404742 46.121615 16.145155 10.602273 10.774949 14.401133 25.262419 11.413848 43.462413a56.205862 56.205862 0 0 1-1.709487 6.837948c-0.880645 2.900948-1.433206 5.180264-1.709487 6.837948l-3.833395 16.145155h525.071532l16.801322-101.826717c6.285387-38.074938 5.663755-70.77967-1.83036-98.096928s-22.983103-49.661462-46.432431-67.04988C1206.483154 34.12067 1174.676334 21.515362 1134.546558 13.641361c-40.147044-7.856733-89.653098-11.793734-148.500894-11.793734H448.230683c-109.19996 0-191.58342 16.973998-247.133115 50.904725-55.532427 33.947995-89.532225 88.58251-101.94759 163.903545L5.939766 781.667262c-7.235102 43.894101-7.770396 81.140198-1.588615 111.755557 6.164514 30.632626 20.064888 55.687835 41.614786 75.131091 21.567165 19.460524 51.578159 33.533574 90.032983 42.21915 38.437557 8.685576 86.337729 13.036997 143.648714 13.036997h637.742268c157.203737 0 243.731409-62.094095 259.583016-186.265016l65.202253-402.333817H646.237631L609.181478 659.9656h72.022933l-10.239655 62.076827zM1919.201106 246.459681c11.966409-11.586523 29.579306-17.388419 52.821422-17.388419 44.153115 0 62.1977 24.433577 54.133756 73.266197l-69.225591 419.722235c-4.247816 25.676841-12.501703 44.084044-24.813463 55.256147-12.294493 11.172102-30.062797 16.766787-53.287646 16.766787-23.242117 0-38.972851-5.594685-47.192203-16.766787s-10.222387-29.579306-5.974571-55.256147l69.225591-419.722235c4.213281-25.659573 12.329028-44.273987 24.312705-55.877778z m184.244713 777.350376c61.161647 0 113.98307-4.334154 158.395198-13.036997 44.412128-8.685576 79.758794-22.136994 106.005463-40.354255 54.012883-36.417254 88.392567-99.340191 103.156319-188.751543l93.210212-565.011365c6.285387-38.074938 5.663755-70.77967-1.83036-98.096928s-22.983103-49.661462-46.43243-67.04988c-23.466595-17.388419-55.273414-29.993727-95.403191-37.867728-40.147044-7.856733-89.63583-11.793734-148.483626-11.793734H1734.179353c-109.19996 0-191.58342 16.973998-247.133115 50.904725-55.532427 33.947995-89.532225 88.599777-101.947591 163.920812l-93.192944 565.011366c-7.235102 43.894101-7.770396 81.140198-1.605882 111.755556 6.164514 30.632626 20.064888 55.687835 41.614785 75.131092 21.567165 19.460524 51.595427 33.533574 90.032984 42.219149 38.454824 8.685576 86.337729 13.036997 143.648713 13.036998h537.849516z" p-id="12638" data-spm-anchor-id="a313x.7781069.0.i3" class="" fill="#ffffff"></path></svg>