<?xml version="1.0" standalone="no"?><!DOCTYPE svg PUBLIC "-//W3C//DTD SVG 1.1//EN" "http://www.w3.org/Graphics/SVG/1.1/DTD/svg11.dtd"><svg t="1541295879348" class="icon" style="" viewBox="0 0 1360 1024" version="1.1" xmlns="http://www.w3.org/2000/svg" p-id="5474" xmlns:xlink="http://www.w3.org/1999/xlink" width="85" height="64"><defs><style type="text/css"></style></defs><path d="M1156.469274 122.815642C1028.826816 43.26257 859.709497 0 680.134078 0S331.441341 43.26257 203.798883 122.815642C72.402235 204.156425 0 314.011173 0 431.731844c0 148.201117 116.826816 284.067039 312.849162 363.530726a20.290503 20.290503 0 0 1 13.318436 20.558659c-4.290503 42.100559-18.592179 117.541899-65.877095 149.899441a31.910615 31.910615 0 0 0 17.877095 58.27933h3.039106c63.284916-5.810056 187.709497-33.96648 312.044693-157.139665a20.826816 20.826816 0 0 1 16.268156-5.72067c23.776536 1.608939 47.553073 2.413408 70.703911 2.413408 179.575419 0 348.603352-43.620112 476.335195-122.815643 131.396648-81.519553 203.798883-191.195531 203.798883-308.826815s-72.49162-227.75419-203.888268-309.094973zM680.134078 812.603352c-22.078212 0-44.692737-0.715084-67.396648-2.234637a71.50838 71.50838 0 0 0-55.329609 20.379888c-83.486034 82.860335-166.346369 118.346369-226.681564 133.273743 30.837989-46.301676 41.743017-105.743017 45.497207-143.016759a70.703911 70.703911 0 0 0-44.692738-72.759777c-175.821229-71.50838-280.849162-189.765363-280.849162-316.513966 0-210.055866 282.368715-380.960894 629.363129-380.960894S1309.497207 222.03352 1309.497207 431.731844s-282.636872 380.871508-629.363129 380.871508z" p-id="5475" data-spm-anchor-id="a313x.7781069.0.i13" fill="#2028DD" class="selected"></path><path d="M396.960894 345.385475a98.324022 98.324022 0 1 0 98.324022 98.324022 98.324022 98.324022 0 0 0-98.324022-98.324022z m0 143.01676a44.692737 44.692737 0 1 1 44.692737-44.692738 44.692737 44.692737 0 0 1-44.692737 44.692738zM691.932961 345.385475a98.324022 98.324022 0 1 0 98.324022 98.324022 98.324022 98.324022 0 0 0-98.324022-98.324022z m0 143.01676a44.692737 44.692737 0 1 1 44.692737-44.692738 44.692737 44.692737 0 0 1-44.692737 44.692738zM986.815642 345.385475a98.324022 98.324022 0 1 0 98.324023 98.324022 98.324022 98.324022 0 0 0-98.324023-98.324022z m0 143.01676a44.692737 44.692737 0 1 1 44.692738-44.692738 44.692737 44.692737 0 0 1-44.692738 44.692738z" p-id="5476" fill="#2028DD"></path></svg>