<?xml version="1.0" standalone="no"?><!DOCTYPE svg PUBLIC "-//W3C//DTD SVG 1.1//EN" "http://www.w3.org/Graphics/SVG/1.1/DTD/svg11.dtd"><svg t="1539308220174" class="icon" style="" viewBox="0 0 1024 1024" version="1.1" xmlns="http://www.w3.org/2000/svg" p-id="2232" data-spm-anchor-id="a313x.7781069.0.i1" xmlns:xlink="http://www.w3.org/1999/xlink" width="200" height="200"><defs><style type="text/css"></style></defs><path d="M545.2 131.9l-375 495.7L374 781.7 749 286 545.2 131.9zM387.5 683.7c-5.8 7.6-16.6 9.1-24.2 3.4-7.6-5.7-9.1-16.6-3.4-24.2l275-363.5c5.8-7.6 16.6-9.1 24.2-3.4 7.6 5.7 9.1 16.6 3.4 24.2l-275 363.5z m382.4-425.2c23-30.4 17-73.7-13.4-96.7L662.8 91C632.3 68 589 74 566 104.4l-8.3 11 203.9 154.1 8.3-11zM559.5 678.6c0 15.3 12.4 27.6 27.6 27.6h290.2c15.3 0 27.6-12.4 27.6-27.6 0-15.3-12.4-27.6-27.6-27.6H587.2c-15.3-0.1-27.7 12.3-27.7 27.6zM125.1 899.7L356.9 800 157.8 649.6l-32.7 250.1z m752.3-55.4H449c-15.3 0-27.6 12.4-27.6 27.6s12.4 27.6 27.6 27.6h428.4c15.3 0 27.6-12.4 27.6-27.6s-12.4-27.6-27.6-27.6z" fill="#ffffff" p-id="2233"></path></svg>