<?xml version="1.0" standalone="no"?><!DOCTYPE svg PUBLIC "-//W3C//DTD SVG 1.1//EN" "http://www.w3.org/Graphics/SVG/1.1/DTD/svg11.dtd"><svg t="1539223049394" class="icon" style="" viewBox="0 0 1024 1024" version="1.1" xmlns="http://www.w3.org/2000/svg" p-id="4119" data-spm-anchor-id="a313x.7781069.0.i1" xmlns:xlink="http://www.w3.org/1999/xlink" width="200" height="200"><defs><style type="text/css"></style></defs><path d="M614.4 6.4l0 70.4c192 44.8 339.2 224 339.2 428.8 0 243.2-198.4 441.6-441.6 441.6s-441.6-198.4-441.6-441.6c0-204.8 140.8-384 339.2-428.8L409.6 6.4C172.8 57.6 0 262.4 0 512c0 281.6 230.4 512 512 512s512-230.4 512-512C1024 262.4 851.2 57.6 614.4 6.4L614.4 6.4z" p-id="4120" fill="#ffffff"></path><path d="M480 0l70.4 0 0 512L480 512 480 0 480 0z" p-id="4121" fill="#ffffff"></path></svg>