<?xml version="1.0" standalone="no"?><!DOCTYPE svg PUBLIC "-//W3C//DTD SVG 1.1//EN" "http://www.w3.org/Graphics/SVG/1.1/DTD/svg11.dtd"><svg t="1544755047596" class="icon" style="" viewBox="0 0 1024 1024" version="1.1" xmlns="http://www.w3.org/2000/svg" p-id="2308" xmlns:xlink="http://www.w3.org/1999/xlink" width="48" height="48"><defs><style type="text/css"></style></defs><path d="M511.007719 66.345987C264.347436 66.345987 64.383234 266.297105 64.383234 512.981376 64.383234 759.653654 264.347436 959.616766 511.007719 959.616766 757.668001 959.616766 957.643109 759.653654 957.643109 512.981376 957.643109 266.297105 757.668001 66.345987 511.007719 66.345987L511.007719 66.345987ZM630.482686 219.953232C655.247179 230.625156 678.953967 244.800596 700.803771 262.430481 709.748473 269.611977 718.410757 277.369214 726.673948 285.761074 745.996162 305.354803 762.039489 327.051949 775.086346 349.983449 778.354329 355.741948 781.480559 361.607309 784.348359 367.507563L630.482686 523.712184C631.998368 514.309506 630.482686 219.953232 630.482686 219.953232L630.482686 219.953232ZM476.792569 197.856992C488.111113 196.504873 499.618299 195.788469 511.325031 195.788469 538.652008 195.788469 565.155717 199.549321 590.344383 206.424409 596.66772 208.199611 602.944169 210.115476 609.090857 212.242883L609.090857 433.11586C603.601691 425.417505 397.443911 218.295796 397.443911 218.295796 422.443934 208.09384 449.042511 201.054099 476.792569 197.856992L476.792569 197.856992ZM271.211621 313.887327C278.310245 304.860844 285.890834 296.045901 294.200913 287.642046 313.512223 268.049407 334.845169 251.711668 357.494251 238.488164 363.136076 235.174383 368.930559 232.059057 374.783925 229.085485L528.637605 385.279203C519.37559 383.774426 229.357 385.338085 229.357 385.338085 239.888261 360.138515 253.839075 336.078433 271.211621 313.887327L271.211621 313.887327ZM207.401425 541.766242C206.073295 530.283046 205.332901 518.552325 205.332901 506.716922 205.332901 478.954869 209.034872 452.109858 215.816184 426.522099 217.544497 420.092992 219.436373 413.686784 221.516891 407.481212L439.133879 407.481212C431.506401 413.041256 227.5589 622.301277 227.5589 622.301277 217.414737 596.971947 210.539649 569.962282 207.401425 541.766242L207.401425 541.766242ZM320.764596 750.250975C311.819894 743.057485 303.13362 735.335142 294.906413 726.96727 275.56021 707.338649 259.468905 685.664401 246.470026 662.686014 243.202043 656.939509 240.087807 651.109041 237.208013 645.127006L391.026798 488.933288C389.534016 498.371951 391.120574 792.74022 391.120574 792.74022 366.285204 782.055209 342.661289 767.90485 320.764596 750.250975L320.764596 750.250975ZM544.951354 816.341236C533.644806 817.657372 522.114721 818.40976 510.442882 818.40976 483.093007 818.40976 456.647089 814.647817 431.435525 807.736745 425.124182 806.021517 418.859728 804.069667 412.677057 801.954256L412.677057 581.05838C418.166223 588.803622 624.312008 795.854455 624.288019 795.854455 599.29999 806.103298 572.690509 813.12014 544.951354 816.341236L544.951354 816.341236ZM749.052605 701.485282C741.940896 710.558654 734.325415 719.373597 726.109111 727.742558 706.762907 747.383174 685.407062 763.70892 662.815774 776.907345 657.116156 780.245116 651.380555 783.36044 645.515195 786.299118L491.649521 630.12939C500.934434 631.633078 790.906136 630.093407 790.906136 630.093407 780.386869 655.258083 766.400073 679.282182 749.052605 701.485282L749.052605 701.485282ZM805.915746 587.827698C804.188523 594.245901 802.295557 600.62812 800.215038 606.85659L582.634035 606.85659C590.261512 601.285642 794.221008 392.025621 794.221008 392.025621 804.317192 417.37785 811.21736 444.37552 814.366489 472.560655 815.694618 484.055847 816.435013 495.762579 816.435013 507.62197 816.424109 535.384023 812.709053 562.205045 805.915746 587.827698L805.915746 587.827698Z" p-id="2309" fill="#282828"></path></svg>