<?xml version="1.0" standalone="no"?><!DOCTYPE svg PUBLIC "-//W3C//DTD SVG 1.1//EN" "http://www.w3.org/Graphics/SVG/1.1/DTD/svg11.dtd"><svg t="1542287334607" class="icon" style="" viewBox="0 0 1024 1024" version="1.1" xmlns="http://www.w3.org/2000/svg" p-id="1873" xmlns:xlink="http://www.w3.org/1999/xlink" width="64" height="64"><defs><style type="text/css"></style></defs><path d="M494.933333 910.222222l-230.4-230.4H116.622222c-8.533333 0-14.222222-2.844444-19.911111-8.533333-5.688889-5.688889-8.533333-11.377778-8.533333-19.911111V361.244444c0-14.222222 11.377778-25.6 25.6-25.6h147.911111l230.4-230.4c17.066667-17.066667 56.888889-19.911111 56.888889 19.911112v765.155555c2.844444 36.977778-34.133333 39.822222-54.044445 19.911111z" fill="#13227a" p-id="1874"></path><path d="M850.488889 779.377778c-8.533333 8.533333-19.911111 14.222222-31.288889 14.222222-11.377778 0-22.755556-5.688889-31.288889-14.222222-17.066667-17.066667-17.066667-45.511111 0-62.577778 54.044444-56.888889 85.333333-128 85.333333-207.644444 0-76.8-31.288889-150.755556-85.333333-207.644445-17.066667-17.066667-17.066667-45.511111 0-62.577778 8.533333-8.533333 19.911111-14.222222 31.288889-14.222222 11.377778 0 22.755556 5.688889 31.288889 14.222222 71.111111 71.111111 110.933333 167.822222 110.933333 270.222223 0 99.555556-39.822222 196.266667-110.933333 270.222222z" fill="#13227a" p-id="1875"></path><path d="M711.111111 665.6c-8.533333 5.688889-17.066667 11.377778-28.444444 11.377778s-25.6-5.688889-34.133334-17.066667c-17.066667-19.911111-14.222222-45.511111 5.688889-62.577778 25.6-22.755556 42.666667-56.888889 42.666667-91.022222 0-34.133333-14.222222-68.266667-42.666667-91.022222-19.911111-17.066667-19.911111-42.666667-5.688889-62.577778 8.533333-11.377778 19.911111-17.066667 34.133334-17.066667 11.377778 0 19.911111 2.844444 28.444444 11.377778 48.355556 39.822222 73.955556 96.711111 73.955556 159.288889 0 62.577778-28.444444 119.466667-73.955556 159.288889z" fill="#13227a" p-id="1876"></path></svg>